<svg xmlns="http://www.w3.org/2000/svg" viewBox="0 0 512 512">
  <defs>
    <linearGradient id="saffron" x1="0" x2="1" y1="0" y2="1">
      <stop offset="0" stop-color="#FF6B35"/>
      <stop offset="1" stop-color="#FFC857"/>
    </linearGradient>
    <filter id="soft" x="-20%" y="-20%" width="140%" height="140%">
      <feGaussianBlur in="SourceAlpha" stdDeviation="6" result="blur"/>
      <feOffset dy="2" result="offset"/>
      <feBlend in="SourceGraphic" in2="offset" mode="normal"/>
    </filter>
  </defs>
  <rect width="512" height="512" rx="48" fill="#F8F6F0"/>
  <g transform="translate(256 265)">
    <path d="M0-150c-22 44-22 92 0 138 22-46 22-94 0-138z" fill="url(#saffron)"/>
    <path d="M-120-40c52-10 92 4 120 40-44 14-98 2-120-40z" fill="url(#saffron)"/>
    <path d="M120-40c-52-10-92 4-120 40 44 14 98 2 120-40z" fill="url(#saffron)"/>
    <path d="M-88 48c40-6 76 6 88 40-40 4-76-12-88-40z" fill="url(#saffron)"/>
    <path d="M88 48c-40-6-76 6-88 40 40 4 76-12 88-40z" fill="url(#saffron)"/>
    <circle r="22" fill="#1F1A14" opacity=".12" filter="url(#soft)"/>
  </g>
  <text x="256" y="440" text-anchor="middle" font-family="'Crimson Text', serif" font-size="40" fill="#1F1A14" opacity=".7">AyurSutra</text>
</svg>