<svg width="96" height="96" viewBox="0 0 96 96" fill="none" xmlns="http://www.w3.org/2000/svg">
  <!-- Background Circle -->
  <circle cx="48" cy="48" r="48" fill="#2E7D32"/>
  
  <!-- Inner Circle -->
  <circle cx="48" cy="48" r="36" fill="#4CAF50" opacity="0.9"/>
  
  <!-- Central Leaf -->
  <path d="M48 18C48 18 36 27 36 36C36 45 40 48 48 54C56 48 60 45 60 36C60 27 48 18 48 18Z" fill="#E8F5E8"/>
  
  <!-- Leaf Veins -->
  <path d="M48 18L48 54" stroke="#2E7D32" stroke-width="2" stroke-linecap="round"/>
  <path d="M42 30L54 30" stroke="#2E7D32" stroke-width="1.5" stroke-linecap="round"/>
  <path d="M40 36L56 36" stroke="#2E7D32" stroke-width="1.5" stroke-linecap="round"/>
  <path d="M42 42L54 42" stroke="#2E7D32" stroke-width="1.5" stroke-linecap="round"/>
  
  <!-- Central Om Symbol -->
  <circle cx="48" cy="48" r="8" fill="#E8F5E8" opacity="0.9"/>
  <text x="48" y="52" font-family="Arial, sans-serif" font-size="8" font-weight="bold" text-anchor="middle" fill="#2E7D32">ॐ</text>
  
  <!-- Notification Bell -->
  <path d="M48 60C48 60 52 64 52 68" stroke="#E8F5E8" stroke-width="2" stroke-linecap="round"/>
  <circle cx="48" cy="70" r="2" fill="#E8F5E8"/>
</svg>